<svg width="31" height="32" viewBox="0 0 31 32" fill="none" xmlns="http://www.w3.org/2000/svg">
<path d="M7.61212 5.82308C11.2985 3.1448 13.1416 1.80565 15.2466 1.72843C15.4155 1.72224 15.5845 1.72224 15.7534 1.72843C17.8584 1.80565 19.7015 3.1448 23.3879 5.82308C27.0742 8.50137 28.9174 9.84051 29.6413 11.8186C29.6994 11.9773 29.7516 12.1381 29.7979 12.3006C30.3749 14.3264 29.6709 16.4932 28.2629 20.8267L25.8839 28.1485C25.5059 29.3118 24.4218 30.0995 23.1985 30.0995C21.6391 30.0995 20.375 28.8353 20.375 27.2759V23.4761C20.375 22.0129 19.1888 20.8267 17.7256 20.8267H13.2744C11.8112 20.8267 10.625 22.0129 10.625 23.4761V27.2759C10.625 28.8353 9.36087 30.0995 7.80147 30.0995C6.57824 30.0995 5.49412 29.3118 5.11612 28.1485L2.73714 20.8267C1.32908 16.4932 0.625053 14.3264 1.20209 12.3006C1.24838 12.1381 1.30061 11.9773 1.35868 11.8186C2.0826 9.84051 3.92577 8.50137 7.61212 5.82308Z" stroke="#828282" stroke-width="2"/>
</svg>
