<svg width="18" height="18" viewBox="0 0 18 18" fill="none" xmlns="http://www.w3.org/2000/svg">
<path d="M14.4828 13.4221C14.1899 13.1293 13.715 13.1293 13.4221 13.4221C13.1292 13.715 13.1292 14.1899 13.4221 14.4828L14.4828 13.4221ZM16.4697 17.5304C16.7626 17.8233 17.2374 17.8233 17.5303 17.5304C17.8232 17.2375 17.8232 16.7626 17.5303 16.4697L16.4697 17.5304ZM6.61661 4.07338C7.02572 4.00859 7.30484 3.6244 7.24005 3.21529C7.17525 2.80618 6.79107 2.52705 6.38196 2.59185L6.61661 4.07338ZM2.59183 6.38198C2.52703 6.79109 2.80615 7.17527 3.21527 7.24007C3.62438 7.30487 4.00856 7.02574 4.07336 6.61663L2.59183 6.38198ZM13.4221 14.4828L16.4697 17.5304L17.5303 16.4697L14.4828 13.4221L13.4221 14.4828ZM7.85716 13.9643C4.48427 13.9643 1.75 11.23 1.75 7.85716H0.25C0.25 12.0585 3.65584 15.4643 7.85716 15.4643V13.9643ZM13.9643 7.85716C13.9643 11.23 11.23 13.9643 7.85716 13.9643V15.4643C12.0585 15.4643 15.4643 12.0585 15.4643 7.85716H13.9643ZM7.85716 1.75C11.23 1.75 13.9643 4.48427 13.9643 7.85716H15.4643C15.4643 3.65584 12.0585 0.25 7.85716 0.25V1.75ZM7.85716 0.25C3.65584 0.25 0.25 3.65584 0.25 7.85716H1.75C1.75 4.48427 4.48427 1.75 7.85716 1.75V0.25ZM6.38196 2.59185C4.43097 2.90086 2.90083 4.43099 2.59183 6.38198L4.07336 6.61663C4.28071 5.30748 5.30746 4.28073 6.61661 4.07338L6.38196 2.59185Z" fill="#BDBDBD"/>
</svg>
